<svg width="95" height="80" viewBox="0 0 95 80" fill="none" xmlns="http://www.w3.org/2000/svg">
<mask id="mask0_3_70" style="mask-type:luminance" maskUnits="userSpaceOnUse" x="0" y="0" width="95" height="80">
<path d="M0 0H95V80H0V0Z" fill="white"/>
</mask>
<g mask="url(#mask0_3_70)">
<path d="M26.0013 54.5858C26.0038 54.5808 26.0063 54.5783 26.0063 54.5734C26.0087 54.5734 26.0087 54.5734 26.0137 54.5709L26.0013 54.5858ZM33.3269 2.65126C33.3269 2.65623 33.3294 2.65871 33.3319 2.66367C33.3343 2.66367 33.3368 2.66615 33.3393 2.66615C33.3368 2.66615 33.3244 2.65126 33.3269 2.65126ZM41.8264 9.95037C41.8264 9.94789 41.8239 9.94541 41.8239 9.94541C41.8214 9.94541 41.8214 9.94541 41.8189 9.94541L41.8264 9.95037ZM47.4456 76.9891C47.4456 76.9891 47.4481 76.9891 47.4481 76.9866L47.4506 76.9841L47.4456 76.9891ZM39.8451 75.0025V75C39.8427 75 39.8427 75 39.8427 75L39.8451 75.0025ZM84.6507 41.6617C84.6532 41.6617 84.6556 41.6617 84.6581 41.6617C84.6581 41.6617 84.6606 41.6567 84.6606 41.6542L84.6507 41.6617ZM84.3634 42.0759C84.3659 42.0734 84.3659 42.0734 84.3684 42.0734C84.3684 42.0709 84.3684 42.0709 84.3684 42.0684L84.3634 42.0759ZM94.6435 26.1532C94.6336 26.25 94.6262 26.3417 94.6163 26.436C94.5222 26.813 94.428 27.1875 94.3339 27.562C94.3612 27.6785 94.3736 27.7902 94.2374 27.8522C94.1754 28.0382 94.116 28.2217 94.0541 28.4077C94.064 28.5615 94.1457 28.7301 93.9526 28.8343C94.0368 29.1096 93.5464 29.0972 93.6777 29.3923C93.6752 29.4866 93.6727 29.5808 93.6727 29.6751C93.6232 30.2926 93.217 30.7614 92.9297 31.2624C92.7737 31.5327 92.6796 31.7807 92.6425 32.0709C92.6524 32.1627 92.6103 32.1974 92.5211 32.185L92.536 32.2346C92.323 32.1974 92.2239 32.2644 92.3007 32.4901C91.5305 33.8963 90.7578 35.3001 89.9876 36.7038C89.7127 36.7113 89.5666 36.8551 89.5493 37.1304C89.3685 37.2718 89.309 37.4727 89.2818 37.686C88.9475 37.7331 88.9004 38.0382 88.7642 38.2639C88.7444 38.306 88.7271 38.3482 88.7172 38.3928C88.6354 38.4102 88.5859 38.4499 88.6008 38.5416C88.5438 38.6235 88.4844 38.7053 88.4249 38.7872C88.2243 38.8045 88.1228 38.8988 88.1797 39.1121C87.7216 39.752 87.1346 40.3026 86.8647 41.0664C86.7012 41.1632 86.5824 41.2872 86.5997 41.4955C86.461 41.5873 86.3199 41.679 86.1837 41.7683C86.1019 41.7857 86.0524 41.8279 86.0697 41.9196C86.0524 41.9692 86.0351 42.0163 86.0177 42.0659C85.9806 42.1131 85.9459 42.1627 85.9088 42.2123C85.9038 42.2495 85.8989 42.2817 85.8964 42.3189C85.7032 42.3313 85.5967 42.4132 85.6487 42.624C84.7869 43.2291 84.2693 44.1666 83.504 44.8685C83.3183 44.9677 83.1697 45.1041 83.0682 45.2926C82.7908 45.6349 82.5332 46.002 82.1023 46.178C82.0652 46.1905 82.028 46.2053 81.9934 46.2202C82.028 46.245 82.0602 46.2698 82.0974 46.2921C82.2484 46.9295 81.6021 47.1081 81.3891 47.5322C80.9681 47.7157 80.661 48.0332 80.3885 48.3879C80.3464 48.4276 80.3019 48.4672 80.2573 48.5069C79.9452 48.7103 79.8462 48.9533 80.1161 49.2634C80.2722 49.8437 80.552 50.3571 80.9705 50.7911C80.9582 51.0292 80.9631 51.2624 81.2504 51.3541C81.4931 52.2916 82.2014 52.996 82.5456 53.8864C82.5209 54.1592 82.4589 54.4444 82.7834 54.5982C83.0335 55.253 83.2812 55.9077 83.5288 56.56C83.504 56.6766 83.4892 56.7882 83.6204 56.8551C83.6427 56.9469 83.6675 57.0362 83.6923 57.1304C83.6675 57.2172 83.7071 57.2445 83.7888 57.2371C83.8458 57.3412 83.9028 57.4454 83.9597 57.5471C84.0093 57.686 84.0563 57.8298 84.1058 57.9687C84.1479 58.1547 84.195 58.3383 84.2371 58.5243C84.2718 58.5243 84.3089 58.5317 84.3411 58.5367C84.356 58.6458 84.3362 58.7723 84.4798 58.8219C84.4748 58.9583 84.4724 59.0972 84.4699 59.2386C85.0494 60.243 85.3862 61.3244 85.4556 62.4851L85.5026 62.4702C85.4828 62.5645 85.5348 62.6091 85.614 62.6389C85.6066 62.7257 85.5967 62.8125 85.5893 62.8993C85.7651 63.9509 85.255 64.8784 85.0345 65.8556C85.0568 65.9722 85.0766 66.0863 84.9355 66.1433C84.881 66.3269 84.8265 66.5079 84.772 66.689C84.6532 66.7014 84.5268 66.6964 84.4724 66.8403C84.4872 66.9345 84.5021 67.0287 84.5169 67.123C84.4847 67.2346 84.5145 67.376 84.3659 67.4305C84.2643 67.557 84.1653 67.681 84.0662 67.81C83.8111 67.8695 83.5362 67.9042 83.4917 68.244C83.4025 68.3035 83.3133 68.3631 83.2242 68.4226C83.1326 68.3928 83.0954 68.4524 83.0682 68.5268C82.7908 68.7103 82.5109 68.8913 82.2336 69.0749C81.9166 69.0575 81.7606 69.5213 81.3965 69.3551C81.347 69.4047 81.2974 69.4519 81.2504 69.5015C81.0151 69.5461 80.7848 69.5883 80.552 69.6304C80.4183 69.6999 80.3167 69.8487 80.1335 69.7817C79.8115 69.5883 79.554 69.8487 79.2692 69.9107C79.0388 69.9281 78.8085 69.9479 78.5782 69.9653C78.4222 69.9529 78.2538 69.8908 78.1547 70.0793C77.6594 70.0223 77.1988 70.1562 76.7456 70.3398C76.5103 70.3398 76.275 70.3398 76.0422 70.3398C74.222 70.4563 72.4933 70.0793 70.8316 69.3551C70.7127 69.3799 70.6037 69.3874 70.5443 69.251C70.1159 69.2311 69.8013 68.931 69.42 68.7897C69.2738 68.7748 69.098 68.8715 68.994 68.6855C68.6423 68.7673 68.469 68.3755 68.152 68.368C67.9167 68.3011 67.6889 68.2167 67.5551 67.9836C66.5645 67.6165 65.5739 67.2495 64.7665 66.5327C64.6724 66.555 64.6402 66.5154 64.6551 66.4236C64.6303 66.3889 64.618 66.3492 64.6229 66.307C64.3629 66.2748 64.1028 66.2401 63.9171 66.0292C63.5753 66.1036 63.4168 65.7242 63.1147 65.7068C62.7383 65.124 62.5822 65.6448 62.3618 65.8556C61.9185 66.1979 61.4158 66.4732 61.0988 66.9618C60.9799 67.0387 60.8511 67.1081 60.8487 67.2768L60.8016 67.2619C60.8165 67.304 60.8239 67.3487 60.8189 67.3908C60.7719 67.3859 60.7248 67.3834 60.6803 67.376L60.6951 67.433C60.4772 67.371 60.4054 67.4975 60.3806 67.6835C59.9101 67.8298 59.5237 68.0853 59.2736 68.5218C59.0036 68.4871 58.912 68.7475 58.7263 68.8517C58.6247 69.0278 58.3969 69.127 58.3994 69.3725C58.3597 69.3651 58.3251 69.3775 58.2929 69.4047C58.1988 69.4072 58.1047 69.4122 58.0106 69.4147C57.8397 69.4345 57.8892 69.561 57.8917 69.6627C57.8719 69.7073 57.8545 69.7495 57.8372 69.7966C57.2775 70 56.9432 70.5059 56.4602 70.8135C56.3686 70.8011 56.3315 70.8531 56.3116 70.9325C56.1754 71.0317 56.0392 71.1309 55.903 71.2326C55.8114 71.3269 55.7148 71.4236 55.6232 71.5178C55.5736 71.565 55.5216 71.6146 55.4721 71.6617C55.3829 71.6493 55.3433 71.6914 55.3557 71.7782C54.9025 72.0114 54.5285 72.3338 54.2214 72.7356C54.0258 72.9266 53.8302 73.1175 53.637 73.311C53.315 73.3333 53.1962 73.6557 52.9361 73.7723C52.847 73.7599 52.8073 73.7996 52.8173 73.8889C52.7925 73.9236 52.7826 73.9608 52.7851 74.003C52.5424 74.055 52.364 74.1716 52.3418 74.4419C52.109 74.437 51.9009 74.4767 51.8093 74.7321C51.5096 74.7272 51.3784 74.9504 51.2323 75.1537C51.0961 75.2579 50.9598 75.3596 50.8212 75.4638C50.7295 75.4439 50.6899 75.501 50.6676 75.5729C50.2441 75.7986 50.0336 76.2971 49.5557 76.4484C49.464 76.4335 49.4293 76.4732 49.4417 76.5625C49.2436 76.8403 49.043 77.118 48.8449 77.3933C48.3942 77.3685 48.3942 77.9563 48.0029 78.0134C47.9211 77.996 47.8865 78.0233 47.9112 78.1076C47.8741 78.1647 47.8345 78.2242 47.7948 78.2837L47.7577 78.3209C47.7007 78.3581 47.6413 78.3928 47.5843 78.43C47.3763 78.3755 47.3045 78.4871 47.2896 78.6731C47.0122 78.9161 46.7324 79.1617 46.455 79.4072C46.3659 79.3923 46.3287 79.4345 46.3386 79.5213C46.034 79.6503 45.7344 79.8536 45.4174 79.8908C44.8527 79.9603 44.615 79.4667 44.3202 79.0997C44.3376 79.0054 44.2831 78.9707 44.2088 78.9459C44.0132 78.4796 43.4386 78.3804 43.2132 77.939C43.1216 77.9588 43.0894 77.9216 43.1067 77.8348C42.9532 77.6513 42.7997 77.4702 42.6461 77.2867C42.5025 77.1428 42.3588 76.9965 42.2127 76.8527C41.9353 76.6518 41.6604 76.4558 41.3831 76.2549C41.2939 76.2649 41.2543 76.2326 41.2791 76.1433C40.9868 75.8978 40.6896 75.6523 40.3949 75.4067L40.3305 75.4241L40.2662 75.4166C40.2637 75.3745 40.2711 75.3348 40.2909 75.2976C40.1423 75.2009 39.9962 75.1041 39.8476 75.0049C39.8402 74.814 39.7733 74.6974 39.5529 74.7569C39.3102 74.6081 39.1294 74.3998 38.9685 74.1716C39.0155 73.9484 38.914 73.8765 38.7059 73.9137C38.6589 73.8963 38.6094 73.8765 38.5623 73.8591C38.4682 73.8814 38.4335 73.8417 38.4484 73.75C37.8862 73.0655 37.2547 72.4553 36.5489 71.9171C35.9 71.4236 35.1719 71.0292 34.7063 70.3199C34.6197 70.1885 34.3844 70.1587 34.2185 70.0793C34.2432 69.7668 34.1169 69.6031 33.7826 69.6503C33.7504 69.2187 33.1857 69.3229 33.0867 68.9583C33.0619 68.8839 33.0272 68.8269 32.9331 68.8492C32.891 68.8343 32.8489 68.8244 32.8019 68.8169C32.8043 68.6235 32.7028 68.5292 32.5121 68.5268C32.049 68.1547 31.5859 67.7778 31.1203 67.4057C31.046 67.2048 30.8999 67.1156 30.6894 67.1255C30.6844 66.9147 30.5581 66.7857 30.3897 66.6865C30.3006 66.7014 30.2585 66.6666 30.2808 66.5724C29.9935 66.0615 29.3025 65.9276 29.1168 65.3224C29.0152 65.2976 28.884 65.3224 28.8345 65.186C28.5076 64.8859 28.1807 64.5858 27.8537 64.2832C27.7671 64.3031 27.7349 64.2658 27.7572 64.1815C27.7299 63.8839 27.4922 63.9112 27.2916 63.8765C27.195 63.8889 27.1603 63.8393 27.1727 63.75L27.1232 63.7673C27.0736 63.5441 26.8929 63.435 26.7319 63.3085C26.5684 63.3011 26.5907 63.2019 26.6279 63.0952C26.5214 63.0903 26.4149 63.0828 26.3084 63.0779C25.9171 62.6909 25.3772 62.4851 25.0354 62.0362C24.9438 62.0585 24.9091 62.0188 24.9265 61.932C23.5421 60.7564 22.1602 59.5833 20.7758 58.4102C20.7411 58.1944 20.5876 58.1299 20.3969 58.1101C20.3523 58.0679 20.3077 58.0258 20.2632 57.9836C20.0279 57.3561 19.649 57.5545 19.2626 57.8075C19.1735 57.8249 19.0843 57.8398 18.9952 57.8546C18.906 58.0555 18.6064 58.0233 18.5494 58.2589C18.2274 58.1547 18.1284 58.5416 17.8634 58.564C17.856 58.6012 17.851 58.6384 17.8436 58.6756C16.8232 58.993 15.9168 59.7172 14.7578 59.5535C13.9802 59.9628 13.1704 59.8859 12.358 59.6999C12.2639 59.6999 12.1698 59.7024 12.0757 59.7048C11.937 59.6924 11.7984 59.6776 11.6572 59.6652C11.3972 59.499 11.1024 59.4667 10.8077 59.4196C10.6344 59.3105 10.461 59.2014 10.2431 59.2733C9.92609 58.8517 9.28467 58.9682 8.9751 58.5268C8.68287 58.6309 8.62343 58.2837 8.40797 58.2341C7.80865 57.9117 7.20933 57.5917 6.61248 57.2693C6.58276 57.0039 6.43665 56.8601 6.16671 56.8502C6.00573 56.6294 6.0404 56.2227 5.60701 56.2624C5.37669 55.6027 4.78727 55.1909 4.44551 54.6056C4.37121 54.3799 4.30187 54.1518 4.06165 54.0352C4.04184 53.5664 3.60844 53.3184 3.4648 52.9166C3.52176 52.6637 3.44004 52.4702 3.20724 52.3487C2.92739 50.9499 3.10075 49.5362 3.07846 48.1299C3.05865 48.0853 3.05617 48.0406 3.07103 47.9935C3.25182 47.8943 3.21962 47.7976 3.06608 47.7033C3.11809 47.6116 3.17257 47.5173 3.22458 47.428C3.08589 47.0833 3.40041 46.7807 3.31869 46.4409C3.54158 46.188 3.48214 45.8904 3.46233 45.5952C3.48214 45.1736 3.95763 45.0099 4.01459 44.6106C4.03441 44.4742 4.05174 44.3353 4.06908 44.1989C4.14833 44.1443 4.23005 44.0947 4.3093 44.0402C4.30683 43.8393 4.3935 43.6979 4.57677 43.6136C4.57677 43.3358 4.67583 43.1002 4.87891 42.9092C5.02502 42.7331 5.17114 42.5595 5.31725 42.3859C5.36183 42.3784 5.40641 42.371 5.44851 42.3586C5.51785 42.1577 5.66397 42.0659 5.86952 42.0511C5.90915 42.0114 5.94629 41.9717 5.98344 41.932C5.98839 41.8403 5.99335 41.7485 5.9983 41.6567C5.85466 41.6146 5.87447 41.4831 5.84971 41.3789C5.43613 41.2351 5.7556 40.6374 5.3123 40.5109C5.21324 40.3745 5.11665 40.2381 5.01759 40.1017C5.08694 39.747 4.87148 39.5486 4.60896 39.3775C4.61144 39.3353 4.60153 39.2956 4.5842 39.2584C4.71793 38.9409 4.23748 38.8665 4.31425 38.5714L4.24491 38.5615L4.18795 38.5689C4.04431 38.5069 4.04679 38.3879 4.07403 38.2639C4.01707 38.125 3.96011 37.9886 3.90315 37.8497C3.67035 37.6686 3.47223 37.4702 3.54405 37.1354C3.52424 36.8527 3.16762 36.7435 3.18743 36.4409C3.15028 36.436 3.11313 36.4335 3.07599 36.4285C3.06856 36.3368 3.05865 36.2475 3.04627 36.1557C2.85557 36.0664 2.94968 35.8829 2.91749 35.744C2.82833 35.7316 2.73918 35.7192 2.64754 35.7093C2.64259 35.5754 2.63764 35.4464 2.63021 35.3125C2.55344 35.2951 2.50391 35.2604 2.53115 35.1661C2.51876 35.0744 2.50886 34.9826 2.49895 34.8908C2.4197 34.8735 2.3677 34.8338 2.38503 34.7445C2.2191 34.5337 2.02098 34.3403 2.05318 34.0377C1.93678 33.8541 1.98136 33.5987 1.79562 33.4449C1.71389 33.4548 1.67179 33.4251 1.69903 33.3383C1.64207 33.2887 1.58759 33.2391 1.53063 33.187C1.56777 32.8125 1.4068 32.5049 1.21115 32.2098C1.23344 32.0932 1.25573 31.9767 1.11209 31.9196C1.11209 31.7336 1.11457 31.5501 1.11704 31.3641C1.11704 31.2698 1.11704 31.1781 1.11952 31.0813C1.10714 30.997 1.09475 30.9127 1.08237 30.8259C0.745563 30.6845 0.829766 30.3695 0.790141 30.1066C0.393895 29.747 0.582112 29.2609 0.510292 28.8293C0.530104 28.7376 0.475621 28.6905 0.398848 28.6632C0.220537 27.2619 0.00755521 25.8631 0.101663 24.4419C0.126429 24.0749 0.109093 23.7029 0.245303 23.3507C0.166053 23.3308 0.111569 23.2961 0.138811 23.2019C0.0570858 22.3685 0.171006 21.5674 0.522675 20.8035C0.535057 20.7093 0.544964 20.6175 0.55487 20.5258C0.619259 19.747 0.673744 18.9657 1.08237 18.2688C1.0799 18.1746 1.07494 18.0853 1.07247 17.991C1.0898 17.9439 1.10466 17.8968 1.122 17.8522C1.10466 17.7579 1.0898 17.6637 1.07247 17.5694C1.43652 17.1726 1.49843 16.6815 1.54549 16.1681C1.56777 15.9276 1.71389 15.7019 1.80304 15.4662C1.98879 15.2108 2.11509 14.938 2.06308 14.6131C2.11757 14.5213 2.17205 14.4295 2.22406 14.3378C2.30331 14.3179 2.36274 14.2882 2.34045 14.1914C3.0537 12.5322 3.98487 10.992 4.89129 9.43202C5.17361 8.94591 5.56243 8.5218 5.76798 7.99105C5.7556 7.8968 5.81008 7.85712 5.88933 7.83728C5.94382 7.74799 5.9983 7.66119 6.05278 7.5719C6.04535 7.48757 6.0404 7.40077 6.03545 7.31396C6.21376 7.29412 6.3153 7.1974 6.33759 7.01882C6.37226 7.01634 6.41188 7.0089 6.44408 6.99898C6.50104 6.90722 6.558 6.81545 6.61496 6.72369C6.59515 6.67904 6.58772 6.6344 6.59019 6.58728C6.63229 6.56992 6.67687 6.55999 6.72145 6.56247C6.89481 6.22765 7.33315 6.12845 7.4545 5.74898C7.50404 5.6969 7.55109 5.6473 7.60062 5.59521C7.58329 5.50345 7.62043 5.46624 7.71454 5.48361C7.86809 5.33232 8.02163 5.18103 8.17518 5.03222C8.20985 4.9975 8.24452 4.96029 8.27672 4.92805C8.42035 4.78172 8.56152 4.63787 8.70268 4.4965C8.79431 4.43698 8.88594 4.37497 8.97758 4.31545C9.34658 4.07488 9.48774 3.56644 9.97314 3.46228C10.0598 3.4722 10.1069 3.44491 10.0895 3.34819C10.1465 3.21178 10.201 3.07537 10.2579 2.94144C10.461 2.94888 10.6443 2.89928 10.8102 2.78271C10.8647 2.69095 10.9192 2.59918 10.9712 2.5099C11.0603 2.50245 11.1445 2.49501 11.2312 2.48757C11.8677 2.10811 12.5042 1.72865 13.2125 1.49303C13.5988 1.61208 13.7845 1.24997 14.0718 1.13341C15.7261 0.632415 17.3656 0.0495777 19.1289 0.0867803C19.7877 0.0346971 20.4415 0.314955 21.1052 0.119022C21.8308 0.116542 22.5614 0.0644584 23.2821 0.126463C24.1563 0.200867 25.0206 0.374479 25.8923 0.505927C26.2192 0.600173 26.5511 0.694419 26.878 0.791145C27.0885 0.957316 27.3262 0.989558 27.5813 0.932514C27.6754 0.944915 27.7695 0.957316 27.8612 0.964756C28.1658 1.11853 28.4828 1.22269 28.8246 1.24749C28.8221 1.57984 29.0772 1.50543 29.2703 1.53271C29.6988 1.60216 30.1322 1.64184 30.5358 1.81793C30.5854 1.86753 30.6324 1.91466 30.682 1.96426C30.8702 1.9593 31.0559 1.95434 31.2441 1.94938C31.2516 1.98658 31.2565 2.0213 31.2565 2.05851C31.7295 2.03618 32.0688 2.42061 32.5146 2.48013C32.7895 2.54462 33.0619 2.60662 33.3368 2.66863C33.3665 2.73807 33.4136 2.78023 33.4978 2.76039C33.5473 2.80999 33.5968 2.8596 33.6464 2.9092C33.738 2.9216 33.8296 2.93648 33.9213 2.94888C34.5008 3.18698 35.1026 3.37547 35.5979 3.77478C35.6202 3.85414 35.6598 3.90622 35.7514 3.88886C36.0932 4.00047 36.4498 4.07736 36.7222 4.34025C36.7321 4.37994 36.7396 4.41962 36.7445 4.4593L36.8139 4.46922L36.8807 4.44938C37.0169 4.51882 37.2126 4.41466 37.3092 4.60315C37.3513 4.61307 37.3959 4.62051 37.4404 4.63291C37.7302 5.00493 38.1834 5.11158 38.5673 5.33232C38.6663 5.62497 39.0527 5.60761 39.1641 5.88539C39.1492 5.97468 39.179 6.01436 39.2731 5.98708C39.7139 5.95484 39.969 6.32686 40.1374 6.57736C40.4519 7.04611 40.9299 7.31148 41.2791 7.71327C41.2568 7.80751 41.2939 7.84224 41.3856 7.82736C41.4821 7.89184 41.5787 7.95384 41.6728 8.01833C41.7645 8.00345 41.8041 8.04065 41.7868 8.13242C42.2251 8.42507 42.5198 8.84918 42.8195 9.26337C42.8046 9.35513 42.8442 9.39234 42.9359 9.38242C43.0324 9.44442 43.129 9.5089 43.2231 9.57091C43.3173 9.55107 43.3494 9.59571 43.3321 9.68499C43.3123 10.0173 43.7432 9.98013 43.8002 10.2505C43.7482 10.4662 43.8596 10.5481 44.0553 10.558C44.1122 10.6448 44.1717 10.7291 44.2286 10.8135C44.2138 10.9052 44.2658 10.9474 44.345 10.9648C44.4416 11.064 44.5382 11.1632 44.6323 11.2624C44.7264 11.2425 44.7536 11.2872 44.7363 11.3715C44.8081 11.5253 44.8799 11.679 44.9542 11.8303C45.0285 11.9891 45.1499 12.0808 45.3332 12.0833C45.3455 12.1751 45.3604 12.2693 45.3728 12.3636C45.3431 12.4553 45.4 12.4876 45.4743 12.5099C45.8136 13.1647 46.3436 13.7177 46.4922 14.4692C46.5095 14.623 46.6185 14.6924 46.7398 14.7544C46.7497 14.8016 46.7621 14.8487 46.772 14.8958C46.7547 14.9851 46.7894 15.0248 46.881 15C47.5199 15.9028 48.0474 16.8601 48.2802 17.9414C48.9241 17.3685 48.9241 16.4112 49.6844 15.9127C49.9321 15.7515 49.9915 15.2877 50.1079 14.9504C50.1649 14.7792 50.2615 14.6701 50.4076 14.5883C50.4992 14.6056 50.5364 14.5535 50.5463 14.4717C51.1258 13.6086 51.5171 12.6165 52.3343 11.9221C52.3566 11.8328 52.3814 11.7435 52.4037 11.6567C52.9064 10.9871 53.3621 10.2827 53.954 9.68251C53.9317 9.64531 53.9267 9.60563 53.9317 9.56099C53.9763 9.54611 54.0208 9.54859 54.0654 9.57091C54.2314 9.4469 54.4344 9.35513 54.4666 9.11456L54.5211 9.13192C54.5038 9.04263 54.536 8.99551 54.6301 9.01039C54.8183 8.90375 54.9322 8.67557 55.1823 8.67061C55.2269 8.63093 55.274 8.59124 55.3186 8.55156C55.373 8.55156 55.4226 8.55404 55.4771 8.55652C55.4771 8.70533 55.4647 8.85662 55.425 8.99303C55.4647 8.85414 55.4746 8.70533 55.4771 8.55652C55.4226 8.55404 55.373 8.55156 55.3186 8.55156C55.3582 8.4598 55.3062 8.31099 55.4771 8.30603C55.5315 8.2465 55.5835 8.18946 55.6405 8.13242C55.6777 8.09521 55.7173 8.06049 55.7544 8.02081C56.3686 7.9216 56.3983 7.10067 57.015 7.00394C57.2973 6.71624 57.5821 6.43351 57.8644 6.14581C58.0502 5.94988 58.3449 5.87051 58.4613 5.59521C58.4489 5.50097 58.4935 5.46872 58.5826 5.49105L58.5678 5.43896C58.8303 5.49849 58.9789 5.30255 59.1597 5.17607C59.1448 5.13142 59.1423 5.08926 59.1572 5.04214C59.1993 5.03718 59.2389 5.04462 59.2761 5.06446C59.6178 5.06694 59.7218 4.7098 59.9819 4.59571C60.0735 4.59075 60.1627 4.58827 60.2543 4.58579C60.2543 4.54859 60.2592 4.51634 60.2667 4.47914C60.4078 4.41962 60.5465 4.36257 60.6877 4.30553C61.1087 4.07984 61.5272 3.85166 61.9482 3.62597C61.9631 3.5466 62.0027 3.497 62.0944 3.5218C62.186 3.5094 62.2776 3.497 62.3693 3.48708C62.4188 3.4474 62.4683 3.41267 62.5179 3.37299C63.397 2.8596 64.348 2.55206 65.3436 2.37845C66.193 2.22964 66.988 1.84273 67.8622 1.80305C67.9043 1.84521 67.9439 1.88738 67.986 1.92706C67.9935 1.8849 67.991 1.84273 67.9786 1.79809C68.0876 1.6344 68.2708 1.60216 68.4368 1.54263C69.2367 1.44839 70.0341 1.35166 70.8316 1.25742C70.9926 1.22269 71.1486 1.18549 71.2675 1.3467C72.7682 1.20037 74.2368 1.47319 75.7178 1.63688C76.067 1.67408 76.2824 1.93946 76.6069 1.95682C76.748 1.9593 76.8917 1.96178 77.0304 1.96426C77.8773 2.02626 78.5881 2.5471 79.4227 2.65622C79.4722 2.81247 79.5911 2.78519 79.7075 2.76287C80.3885 2.97121 80.9532 3.38291 81.5302 3.77478C81.5501 3.84918 81.5897 3.90374 81.6788 3.88886C83.6204 4.59571 85.4382 5.52081 86.991 6.91218C87.1297 7.03618 87.2609 7.17259 87.464 7.18251C87.5507 7.16515 87.5879 7.1974 87.573 7.28668C87.6275 7.33629 87.677 7.38341 87.7315 7.43301C87.7538 7.51238 87.7959 7.56694 87.89 7.54462C87.9271 7.5595 87.9593 7.57934 87.9915 7.60414C88.0188 7.97121 88.3704 8.13242 88.5809 8.29363C89.3066 8.85662 89.7474 9.67011 90.4458 10.248C90.3665 10.5952 90.5349 10.8011 90.842 10.9276C90.9361 10.9821 91.0278 11.0392 91.1194 11.0962C91.1243 11.2277 91.1268 11.3616 91.1318 11.4955C91.2085 11.5203 91.2606 11.5625 91.2457 11.6542C91.2977 11.7832 91.4116 11.7956 91.528 11.8055C91.5181 12.0139 91.58 12.1999 91.7162 12.3611C91.6915 12.4578 91.7336 12.4901 91.8277 12.4727C92.3032 13.1324 92.7886 13.7872 92.9669 14.6081C93.1675 14.7098 93.0858 14.8809 93.0759 15.0347C93.3037 15.4935 93.5538 15.9449 93.6777 16.4509L93.6232 16.4335C93.6232 16.5774 93.6281 16.7237 93.6306 16.8675C93.9724 17.0535 93.591 17.6165 94.0739 17.7306C93.9897 18.3829 94.3637 18.931 94.4924 19.5337C94.1977 19.7892 94.5147 19.8487 94.6311 19.9702C94.6386 20.8953 94.8292 21.808 94.8713 22.7232C94.9134 23.8566 95.1091 25.0347 94.6435 26.1532ZM60.7694 4.69492C60.7694 4.7098 60.7694 4.72964 60.7669 4.747C60.7694 4.72964 60.7719 4.7098 60.7694 4.69492ZM61.5322 64.3279C61.5124 64.2758 61.4876 64.2336 61.4579 64.1964C61.4901 64.2336 61.5124 64.2758 61.5322 64.3279C61.4406 64.3155 61.3464 64.3006 61.2548 64.2882C61.2003 64.2014 61.1483 64.1195 61.0938 64.0327C61.0542 64.0327 61.0146 64.0302 60.9774 64.0253C60.9675 63.8393 60.9155 63.7029 60.6852 63.7748C60.3756 63.306 59.6995 63.373 59.3925 62.8993C59.4098 62.8075 59.3677 62.7753 59.281 62.7877C59.2315 62.7654 59.182 62.743 59.1324 62.7182C59.0507 62.7356 59.0185 62.7058 59.0433 62.624C58.9343 62.5198 58.8204 62.4181 58.7114 62.314C58.6198 62.3288 58.5826 62.2916 58.595 62.1999C58.4563 62.0188 58.278 61.8874 58.0997 61.746C57.6366 61.374 57.2131 60.9573 57.0076 60.372C56.802 59.9975 56.7574 59.6503 57.1561 59.3651C57.1462 59.2658 57.384 59.1716 57.1586 59.0724C57.067 59.0947 57.0298 59.0377 57.0051 58.9657C56.9159 58.8765 56.8268 58.7847 56.7376 58.6954C56.589 58.6607 56.4033 58.7227 56.3042 58.5441C56.0194 58.1795 55.4548 58.3308 55.1848 57.9365C55.0734 57.9563 54.9595 57.9935 54.9025 57.8472C54.6028 57.8497 54.484 57.6066 54.318 57.4256C53.1615 57.0759 52.0619 56.6245 51.0465 55.94C50.5091 55.5779 49.7984 55.501 49.1346 55.4241C49.0851 55.2802 48.9539 55.3125 48.8498 55.2926C48.045 54.9132 47.2549 54.4667 46.5442 53.9657C45.8136 53.4573 45.2291 52.6984 44.7289 51.9196C44.7462 51.8328 44.7239 51.7807 44.6224 51.8055C44.5729 51.7882 44.5233 51.7733 44.4763 51.7559C44.3822 51.7658 44.35 51.7212 44.3673 51.6319L44.3178 51.6468C44.3772 51.4161 44.241 51.2996 44.0602 51.2078C43.2751 50.2778 42.3167 49.5213 41.4747 48.6483C41.0908 48.249 40.8209 47.743 40.499 47.2892C40.4593 47.2941 40.4222 47.2842 40.39 47.2544C40.3008 47.2644 40.2587 47.2296 40.281 47.1379C40.2166 46.994 40.1522 46.8551 40.0878 46.7113C40.1993 46.431 40.3058 46.1483 40.4172 45.8655C40.4024 45.7763 40.437 45.7341 40.5311 45.7539C40.8135 45.5779 40.9125 45.3745 40.6872 45.0645C40.5931 44.9355 40.4742 44.6776 40.3702 44.7916C40.1176 45.062 39.7238 45.0372 39.4935 45.2926C39.2384 45.5704 39.6866 45.6572 39.6767 45.8829C39.6693 46.0441 39.7164 46.2128 39.5455 46.3194C39.3746 46.3169 39.3152 46.4558 39.2334 46.565C39.2508 46.6542 39.2186 46.6964 39.1245 46.679C39.0774 46.6989 39.0304 46.7187 38.9833 46.7361C38.8669 46.7113 38.753 46.689 38.6936 46.8328C38.4137 47.0411 38.1314 47.2445 37.8515 47.4529C37.7574 47.4231 37.7252 47.4603 37.745 47.5521C37.6881 47.6066 37.6311 47.6637 37.5717 47.7182C37.5246 47.7033 37.4776 47.686 37.4305 47.6686C37.3315 47.7678 37.2299 47.8695 37.1333 47.9687C37.0888 47.9712 37.0467 47.9836 37.007 48.001C36.9154 47.9836 36.8683 48.0258 36.8535 48.1126C36.7643 48.1696 36.6777 48.2267 36.5885 48.2837C36.4721 48.2639 36.3557 48.2391 36.2987 48.3829C36.2591 48.3928 36.2195 48.3978 36.1774 48.4028C36.0783 48.5044 35.9817 48.6036 35.8827 48.7029C35.7663 48.6756 35.6524 48.6607 35.5954 48.8045C35.5013 48.8665 35.4097 48.9261 35.318 48.9881C35.2264 48.9707 35.1843 49.0154 35.167 49.0997C34.7484 49.3279 34.3299 49.556 33.9114 49.7842C33.7207 49.8834 33.6067 50.1116 33.3566 50.1091C33.3492 50.0942 33.3418 50.0793 33.3319 50.0645C33.3393 50.0793 33.3467 50.0942 33.3566 50.1091C33.1684 50.2009 32.9777 50.2926 32.792 50.3844C32.7003 50.4737 32.6112 50.5679 32.5195 50.6572C32.2793 50.7986 32.1159 51.0615 31.8063 51.0912C31.363 51.1408 31.2763 51.741 30.8033 51.7485L30.8206 51.8006C30.6027 51.7634 30.3972 51.746 30.3798 52.0585C30.3377 52.0585 30.2956 52.0659 30.256 52.0783C30.1198 52.2743 29.8944 52.2916 29.6938 52.366C29.2505 52.7232 28.7874 53.0481 28.2772 53.3035C28.0345 53.3259 27.8983 53.5317 27.7126 53.6483C27.6234 53.6359 27.5343 53.6284 27.4476 53.616C27.3807 53.7822 27.086 53.7574 27.1232 54.0079C27.039 54.0203 26.9572 54.0327 26.873 54.0451C26.8681 54.0798 26.8631 54.117 26.8607 54.1542C26.6279 54.2634 26.3951 54.37 26.1623 54.4816C26.0756 54.4593 26.031 54.5064 26.0038 54.5759C25.8998 54.5957 25.7784 54.5858 25.7363 54.7222C25.4094 54.8214 25.0825 54.9231 24.7581 55.0248C24.0869 55.558 23.2598 55.7812 22.5094 56.1607C22.4623 56.3021 22.3335 56.2847 22.2271 56.307C21.9819 56.6443 21.5609 56.6617 21.234 56.8502C21.2265 56.8874 21.2216 56.9221 21.2191 56.9593C21.172 56.9692 21.1225 56.9791 21.073 56.9866C21.125 57.0436 21.1795 57.0982 21.234 57.1528C21.2736 57.2966 21.3974 57.2693 21.499 57.2817C21.6872 57.4653 21.65 57.9042 22.0884 57.8026L22.071 57.8571C22.1651 57.8447 22.2097 57.8819 22.1973 57.9786C22.7496 58.6929 23.5173 59.1443 24.2231 59.6726C24.2033 59.7619 24.238 59.7966 24.3272 59.7817C24.4857 59.933 24.6442 60.0868 24.8002 60.2406C24.7779 60.3199 24.8076 60.3522 24.8893 60.3323C24.976 60.3646 25.0899 60.372 25.1395 60.434C25.8378 61.3269 26.8508 61.8254 27.7324 62.4876C27.6928 62.7033 27.7695 62.8001 27.9949 62.748C28.3367 63.3209 29.1168 63.4102 29.4164 64.0327C29.4635 64.0674 29.5106 64.1046 29.5601 64.1418C30.251 64.4667 30.4764 65.3199 31.2095 65.5952C31.2268 65.7763 31.3184 65.8829 31.5091 65.8879C31.6032 66.0218 31.6973 66.1582 31.7939 66.2921C31.8732 66.7906 32.2471 66.8303 32.6434 66.8279C32.839 66.9246 32.8043 67.2296 33.0495 67.2817C33.0743 67.3561 33.1114 67.4107 33.2031 67.3958C33.3517 67.4975 33.5052 67.5992 33.6538 67.7009C33.6389 67.7926 33.6736 67.8298 33.7652 67.81C33.9039 67.9142 34.0401 68.0208 34.1788 68.125C34.1962 68.3035 34.2506 68.4449 34.476 68.3829C34.6741 68.5664 34.7509 68.8591 35.0233 68.9682C35.0555 69.3229 35.3007 69.3973 35.5979 69.4023C35.6326 69.871 36.2145 69.8462 36.3408 70.2331C36.3186 70.3249 36.3557 70.3596 36.4449 70.3447C36.4944 70.3646 36.5439 70.3869 36.591 70.4042C36.6801 70.3869 36.7173 70.4241 36.7024 70.5109C36.8634 70.9325 37.3438 70.9102 37.6286 71.183C38.493 72.0114 39.387 72.805 40.2736 73.6136C40.2637 73.7004 40.2959 73.7425 40.3875 73.7227C40.442 73.7797 40.499 73.8368 40.5559 73.8963C40.5485 73.9856 40.5881 74.0253 40.6797 73.998L40.6674 74.055C40.7689 74.0377 40.7937 74.0922 40.7838 74.1815L40.8358 74.1666C40.759 74.5411 41.0735 74.4047 41.232 74.4692C41.4648 74.6528 41.7001 74.8388 41.9329 75.0248C41.9527 75.1984 42.027 75.3125 42.2226 75.305C42.5693 75.8631 43.186 76.121 43.6268 76.5699C43.768 76.7782 43.8893 77.0139 44.2014 76.9767L44.2162 76.9816C44.1741 77.2941 44.4094 77.4231 44.6125 77.5694C44.6447 78.0034 45.1053 78.0059 45.3109 78.2614C45.4991 79.0228 45.6774 78.2837 45.8582 78.2589C46.4005 78.1795 46.4204 77.4057 47.0122 77.3908C47.2351 77.3437 47.3292 77.1627 47.4432 76.999C47.8642 76.7882 48.2059 76.5104 48.2604 75.9995L48.3124 76.0144C48.2926 75.9251 48.3199 75.878 48.4189 75.8978C48.6591 75.8532 48.8251 75.7366 48.8573 75.4762C49.0455 75.4489 49.2065 75.3819 49.2312 75.1612C49.3377 75.062 49.4417 74.9603 49.5482 74.8636C49.7587 74.9032 49.8305 74.7842 49.8429 74.6032C50.363 74.2262 50.8856 73.8492 51.4056 73.4697C51.3982 73.3904 51.4254 73.3407 51.5195 73.3705C51.7127 73.3507 51.8192 73.244 51.8365 73.0481C51.8167 72.9563 51.8514 72.9216 51.9406 72.9439C52.1213 72.9092 52.2625 72.8497 52.4161 72.7083C53.0847 72.0858 53.7881 71.5005 54.4815 70.9028C54.692 70.8581 54.8059 70.7118 54.8728 70.5158C55.004 70.3422 55.2715 70.3224 55.3532 70.0942C55.3359 70 55.3681 69.9603 55.4647 69.9901C55.9179 69.5734 56.5345 69.3576 56.8936 68.8269C56.8862 68.7401 56.9234 68.6979 57.015 68.7103C57.2973 68.4672 57.5796 68.2217 57.8595 67.9762C57.914 68.0109 57.961 68.0258 57.9982 68.0183C57.9585 68.0233 57.914 68.0109 57.8595 67.9762C57.9189 67.8447 58.0254 67.8447 58.1443 67.867C58.283 67.7604 58.4217 67.6513 58.5603 67.5421C58.652 67.4479 58.7461 67.3536 58.8402 67.2569C58.9318 67.1676 59.0235 67.0808 59.1151 66.9915C59.1399 66.9171 59.1795 66.8601 59.2686 66.8799C59.8803 66.3492 60.492 65.8184 61.1013 65.2877C61.3291 64.9925 62.0324 64.9305 61.5322 64.3279ZM30.9494 39.4221C30.9469 39.4593 30.942 39.499 30.942 39.5362C30.942 39.499 30.9469 39.4618 30.9494 39.4221C30.9544 39.3849 30.9569 39.3427 30.9569 39.308C30.9593 39.3452 30.9569 39.3849 30.9494 39.4221ZM35.9396 48.0406C35.8926 47.9786 35.8505 47.934 35.8084 47.9042C35.8505 47.934 35.8901 47.9811 35.9396 48.0406ZM41.7868 46.2946C41.7001 46.2872 41.6159 46.2797 41.5292 46.2748C41.2543 46.0119 40.9125 46.2921 40.868 46.3889C40.7714 46.6071 41.0215 46.7038 41.237 46.7212C41.2295 46.9171 41.2617 47.1007 41.388 47.2594C41.6357 47.2619 41.7174 47.438 41.8388 47.6215C42.1434 48.0828 42.4802 48.5243 42.9606 48.8244C42.9458 48.9112 42.9829 48.9509 43.0696 48.936C43.2578 49.1443 43.451 49.3527 43.6392 49.561C43.6763 49.5411 43.7135 49.5337 43.7531 49.5362C43.768 49.5783 43.7655 49.623 43.7482 49.6652C43.8076 49.804 43.9314 49.8115 44.0528 49.814C44.1196 49.9057 44.184 49.9975 44.246 50.0868C44.2658 50.31 44.4243 50.367 44.6125 50.3894C45.0558 50.9424 45.4991 51.4955 45.9449 52.0511C46.0365 52.1701 46.1628 52.2073 46.3064 52.2123C46.3238 52.4603 46.299 52.743 46.6754 52.7381C46.6928 52.7579 46.7076 52.7778 46.725 52.7976C46.7795 52.8224 46.8364 52.8497 46.8934 52.877L46.8414 52.8993C46.8587 53.1473 47.0667 53.2812 47.1831 53.4722C47.1633 53.564 47.198 53.5987 47.2896 53.5813C47.6017 53.6681 47.7701 54.0402 48.1391 54.0154C48.1836 54.0327 48.2307 54.0501 48.2728 54.0674C48.5725 54.4097 49.0529 54.3725 49.4046 54.6031C49.7018 54.8363 50.0782 54.8586 50.4125 54.995C50.5463 54.995 50.6825 54.9975 50.8162 54.9975C50.9103 55.0545 51.0019 55.1116 51.0961 55.1661C51.3858 55.3918 51.839 55.248 52.0792 55.5927C52.26 55.8184 52.5944 55.6671 52.7826 55.8755C53.4735 56.3839 54.3849 56.431 55.0536 56.9841C55.2765 56.994 55.4572 57.0982 55.6108 57.252C55.7569 57.2991 55.9525 57.2024 56.0442 57.4032C56.0888 57.4057 56.1309 57.4181 56.1705 57.438C56.2671 57.4231 56.2993 57.4677 56.277 57.5595L56.329 57.5421C56.2819 57.7654 56.3612 57.8596 56.589 57.81C56.7624 57.8224 56.8713 57.9439 57.01 58.0282C57.7059 58.4598 58.3994 59.055 59.2364 58.2763C59.2934 58.2738 59.3479 58.2688 59.3999 58.2589C59.3479 58.2663 59.2934 58.2738 59.2364 58.2763C59.2736 58.2118 59.3107 58.1473 59.3504 58.0828C59.499 57.9762 59.6054 57.7951 59.8283 57.8174C59.8308 57.686 59.8358 57.5545 59.8358 57.4231C60.3905 57.2247 60.3806 56.4781 60.9452 56.2872C60.9873 56.1012 61.0418 55.93 61.235 55.8457C61.4406 55.367 61.9408 55.0967 62.1092 54.5957C62.1092 54.4543 62.1092 54.313 62.1092 54.1716C62.0003 53.8789 62.4361 53.6557 62.2207 53.3457C62.0225 53.3308 61.8715 53.249 61.8021 53.0481C61.708 52.9613 61.6114 52.872 61.5149 52.7827C61.2325 52.6562 60.975 52.5 60.809 52.2247C60.6704 52.2098 60.5341 52.1924 60.3955 52.1776C60.341 52.0635 60.2617 51.999 60.1676 51.9618C60.2617 51.999 60.341 52.061 60.3955 52.1776C60.232 52.2495 60.1131 52.1056 59.972 52.0907C59.8977 52.0511 59.8308 52.0114 59.8605 51.9097L59.811 51.9271C59.9423 51.4583 59.5856 51.1557 59.4247 50.7862C59.4098 50.7415 59.4123 50.6969 59.4321 50.6523C59.4172 50.558 59.4048 50.4638 59.39 50.3695C59.4717 50.0223 59.2612 49.8288 59.0086 49.6577C58.9913 49.5188 58.9764 49.3824 58.9591 49.2435C58.5925 48.2143 57.8075 47.4677 57.1537 46.6394C56.7128 46.0764 56.1036 45.6771 55.7272 45.0297C55.373 44.4196 54.8728 43.8938 54.4146 43.3457C54.3007 43.2143 54.1818 42.934 53.9168 43.1275C53.7014 43.2812 53.8227 43.4747 53.8574 43.688C53.9986 44.5039 54.3998 45.1959 54.8307 45.873C55.1353 46.3492 55.4201 46.8179 55.3458 47.4132C55.3458 47.6017 55.3433 47.7902 55.3433 47.9762C55.1625 48.6408 54.744 48.6508 54.2437 48.3531C54.0877 48.2589 53.9713 48.1027 53.7707 48.0903C53.6766 48.1126 53.637 48.0605 53.6196 47.9786C53.3869 47.8373 53.159 47.6959 52.9262 47.5545C52.8816 47.5049 52.8346 47.4553 52.7875 47.4057C52.6934 47.2693 52.5968 47.1329 52.5003 46.9965C52.4235 46.9791 52.3715 46.9419 52.3839 46.8502C51.3437 46.2376 50.685 45.1909 49.7117 44.494C49.3352 44.2237 48.9316 43.9261 48.7235 43.4722C48.7062 43.4325 48.6963 43.3904 48.6938 43.3457C48.5106 43.2366 48.2753 43.1771 48.253 42.9067C48.2654 42.8199 48.2332 42.7778 48.1415 42.7902C47.9979 42.6785 47.8592 42.5719 47.7156 42.4603C47.7082 42.4454 47.6982 42.4305 47.6908 42.4181C47.7007 42.4305 47.7082 42.4454 47.7156 42.4603C47.5744 42.4578 47.4333 42.4553 47.2921 42.4529C47.2029 42.4653 47.1138 42.4752 47.0246 42.4901C46.9107 42.6587 46.8067 42.8323 46.5863 42.8819C46.5442 42.9365 46.5046 42.991 46.4625 43.0481C46.9677 43.4772 47.2921 44.0823 47.8518 44.4568C47.8667 44.5387 47.9063 44.5883 47.9979 44.5783C48.1019 44.6776 48.2059 44.7792 48.31 44.8809C48.2901 44.9727 48.3248 45.0099 48.4189 44.9876C48.5725 45.0917 48.7235 45.1959 48.8746 45.3001C48.9192 45.5208 49.0678 45.6324 49.2684 45.7019C49.682 46.0069 49.781 46.5848 50.2565 46.8378C50.3358 46.8576 50.3902 46.8948 50.3704 46.9866C50.368 47.1751 50.3655 47.3636 50.3655 47.5496C50.3184 48.0605 50.0584 47.8298 49.8256 47.7083C49.7488 47.6835 49.6919 47.6463 49.7117 47.5496C49.6696 47.3958 49.516 47.4206 49.4095 47.371C49.2213 47.3115 49.1173 47.1949 49.152 46.9866C48.9539 46.5426 48.4363 46.3492 48.2778 45.873C48.0673 45.8655 47.8567 45.8581 47.7552 45.62C47.7428 45.5158 47.728 45.4117 47.7131 45.3075C47.5744 45.253 47.4382 45.1959 47.2995 45.1413C47.297 45.1041 47.2921 45.0669 47.2896 45.0297C47.1584 44.9752 47.0296 44.9206 46.8983 44.866C46.6928 44.4568 46.3981 44.1294 46.0266 43.8665C45.9771 43.8293 45.9275 43.7946 45.8805 43.7574C45.9275 43.7921 45.9771 43.8293 46.0266 43.8665C45.935 43.8839 45.8978 43.8318 45.878 43.7574C45.6997 43.6706 45.6031 43.5317 45.5907 43.3308C45.4074 43.3383 45.2341 43.1696 45.0434 43.2986C44.9468 43.3011 44.8552 43.3011 44.7586 43.3035C44.4614 43.2564 44.2856 43.4747 44.0701 43.6111C44.0528 43.6508 44.0503 43.6954 44.0602 43.7401C44.2484 43.9385 44.3475 44.2212 44.6199 44.3427C44.9369 44.4816 45.1177 44.7668 45.3381 45.0124C45.3827 45.057 45.4248 45.1017 45.4694 45.1488C45.6501 45.1612 45.7888 45.2133 45.7244 45.439C45.8285 45.5282 45.93 45.6175 46.034 45.7043C46.2371 45.7043 46.351 45.7787 46.2891 46.002C46.4476 46.126 46.6086 46.25 46.7695 46.374C47.3218 46.8303 47.6834 47.4826 48.3372 47.8472C48.5774 47.9786 48.8474 48.1919 48.8696 48.5392C48.8523 48.5788 48.8424 48.621 48.8399 48.6681C48.7112 48.7227 48.7062 48.7773 48.8399 48.8293C48.8474 48.869 48.8474 48.9087 48.8399 48.9484C48.7929 48.9558 48.7483 48.9682 48.7037 48.9856C48.5898 48.9657 48.4759 48.9434 48.4189 49.0873C47.9236 48.6905 47.4234 48.2986 47.0122 47.8125C46.9206 47.8249 46.881 47.7877 46.8934 47.6934C46.7473 47.5421 46.5962 47.3908 46.4476 47.2371C46.3584 47.2594 46.3213 47.2247 46.3411 47.1304C45.4174 46.064 44.2311 45.253 43.347 44.1418C43.2553 44.1567 43.2231 44.1121 43.2306 44.0253C42.5941 43.7078 42.0914 44.251 41.5119 44.2931C41.3831 44.3279 41.2543 44.3626 41.1255 44.3998C41.237 44.6602 41.3038 44.9653 41.6555 45.0273C41.6035 45.377 41.975 45.3819 42.1087 45.5803C42.0938 45.6721 42.1211 45.7143 42.2201 45.682C42.2697 45.6944 42.3167 45.7068 42.3663 45.7217C42.3762 45.8011 42.4133 45.8507 42.5025 45.8358C42.7452 45.811 42.7625 46.0788 42.921 46.1582C42.9829 46.312 43.1043 46.2673 43.2182 46.2525L43.2009 46.3021C43.2553 46.3442 43.3073 46.3839 43.3618 46.4261C43.4114 46.4707 43.4609 46.5154 43.5104 46.5575C43.503 46.6518 43.5426 46.6939 43.6342 46.6766L43.6219 46.7286C43.7135 46.7187 43.7531 46.7609 43.7407 46.8527L43.7927 46.8378C43.7828 46.9246 43.815 46.9692 43.9067 46.9618C43.9636 47.0188 44.0206 47.0734 44.0775 47.128C44.0627 47.2222 44.1073 47.2569 44.1964 47.242C44.5729 47.6711 44.9468 48.0977 45.3232 48.5243C45.4718 48.621 45.6204 48.7177 45.7665 48.8145C45.7418 49.1096 45.8656 49.2485 46.1653 49.2162C46.2049 49.2361 46.2445 49.2435 46.2866 49.246C46.3584 49.6726 46.7398 49.8412 47.0023 50.1066C47.0395 50.6572 46.933 51.0094 46.2841 50.6423C46.3015 50.5481 46.2594 50.5134 46.1677 50.5282C46.1281 50.5109 46.086 50.4985 46.0414 50.496C46.0489 50.2951 45.9449 50.2058 45.7492 50.2108C45.5115 49.9355 45.2737 49.6577 45.0384 49.3849C44.5109 49.0005 44.1048 48.5069 43.7482 47.9687C43.7655 47.877 43.7284 47.8373 43.6342 47.8546C43.4535 47.7505 43.2999 47.6165 43.2009 47.4256C42.9903 47.4305 42.8467 47.3487 42.817 47.1255C42.5248 46.8824 42.2325 46.6394 41.9403 46.3988C41.8536 46.4236 41.814 46.369 41.7868 46.2946ZM48.8895 43.2887C48.8845 43.2589 48.8721 43.2242 48.8498 43.1895C48.8746 43.2242 48.8845 43.2589 48.8895 43.2887ZM48.8077 42.8695C48.7854 42.7976 48.7533 42.7306 48.7235 42.6637C48.7557 42.7331 48.7854 42.8001 48.8077 42.8695C48.835 42.9489 48.8548 43.0307 48.8548 43.12C48.8548 43.0332 48.8375 42.9514 48.8077 42.8695ZM93.638 25.5828C93.6504 25.4439 93.6653 25.305 93.6777 25.1661C93.8758 24.2286 93.5613 23.2887 93.6777 22.3512C93.6777 22.0684 93.6752 21.7882 93.6752 21.5054C93.4251 21.2128 93.7297 20.8259 93.5093 20.5307C93.4325 20.5084 93.378 20.4737 93.3978 20.3794C93.1378 19.494 93.0907 18.5516 92.6895 17.7033C92.64 17.376 92.7093 17.0312 92.5583 16.7162C92.4518 16.436 92.3453 16.1557 92.2388 15.8755C92.1174 15.8135 92.1001 15.7118 92.1298 15.5903C92.1794 15.2827 91.9639 15.0967 91.798 14.8884C91.8401 14.752 91.8128 14.6453 91.6791 14.5734L91.6147 14.5907L91.5478 14.5833C91.5577 14.5089 91.5676 14.432 91.5776 14.3576C91.1392 13.6012 90.7033 12.8447 90.265 12.0883C90.2204 12.0858 90.1758 12.0783 90.1337 12.0684C90.1263 12.0213 90.1313 11.9742 90.1461 11.932C90.0941 11.8849 90.0446 11.8353 89.9926 11.7882C90.0396 11.4856 89.6384 11.3864 89.6805 11.0863C89.7424 10.8631 89.6062 10.8085 89.4279 10.7936C89.1382 10.4687 88.8534 10.1463 88.5636 9.82388C88.519 9.78172 88.4745 9.73956 88.4299 9.6974C87.7736 9.11704 87.1173 8.53668 86.461 7.95632C86.3694 7.97865 86.3322 7.93896 86.3496 7.8472C85.4902 7.35613 84.881 6.51039 83.9325 6.14333C83.8285 5.95484 83.6601 6.01684 83.504 6.03668C83.1227 5.99948 82.9642 5.48857 82.5233 5.57785C82.4664 5.44144 82.3574 5.44144 82.2361 5.47121C81.8225 5.27279 81.4089 5.07686 80.9953 4.87845C80.9705 4.79908 80.921 4.75444 80.8318 4.7718C80.6238 4.60563 80.443 4.3849 80.1285 4.45434C80.022 4.27577 79.9824 4.02775 79.7001 4.01783C79.6035 4.01783 79.5069 4.01783 79.4103 4.01783L79.4252 4.06495C79.3212 4.02775 79.175 4.0724 79.1305 3.91367C78.2513 3.36059 77.2186 3.2589 76.2602 2.94392C76.0893 2.94144 75.9234 2.94144 75.7549 2.93896C74.8906 2.61654 73.9941 2.49501 73.0778 2.47021C72.8648 2.52974 72.6791 2.48261 72.5156 2.3338C72.3769 2.38589 72.2705 2.54214 72.0946 2.46029C71.998 2.46277 71.9064 2.46525 71.8123 2.47021C71.7182 2.48509 71.6241 2.50245 71.53 2.51734C71.4359 2.51734 71.3418 2.51734 71.2476 2.51734C70.4948 2.53966 69.7295 2.34124 68.994 2.64878C68.7067 2.59422 68.4863 2.72319 68.2808 2.89928C68.0034 2.98113 67.6839 2.79263 67.4338 3.03569C67.2282 3.03569 67.04 3.08529 66.879 3.2217C66.2203 3.36307 65.5615 3.50444 64.9028 3.64581C64.8111 3.62845 64.769 3.67805 64.7517 3.75742C64.6625 3.8095 64.5734 3.86406 64.4842 3.91615C64.031 4.04015 63.5035 3.98559 63.1964 4.4593C63.0627 4.46922 62.9265 4.48162 62.7903 4.49154C62.6986 4.46922 62.6565 4.5213 62.6342 4.60067C62.5872 4.63787 62.5451 4.67755 62.498 4.71724C62.2999 4.72468 62.1711 4.83876 62.0746 5.00246C61.8962 5.0719 61.656 4.93301 61.5198 5.15871C61.3167 5.15871 61.1756 5.25295 61.0938 5.43648C60.9923 5.46376 60.8635 5.42904 60.809 5.56545C60.6283 5.60513 60.3509 5.52329 60.4177 5.87547C60.3633 5.92755 60.3113 5.98212 60.2568 6.03668C60.0512 6.01436 59.8259 5.95484 59.8209 6.27974C59.6153 6.2847 59.4717 6.38142 59.385 6.56744C58.9244 6.74849 58.6421 7.15275 58.2805 7.45781C58.1913 7.42557 58.1517 7.47269 58.1245 7.54462C57.9288 7.54214 57.8446 7.64878 57.8421 7.83728C57.7555 7.89184 57.6688 7.9464 57.5796 7.99849C57.4409 8.1349 57.2973 8.2713 57.1586 8.40771C57.1487 8.44243 57.1413 8.47716 57.1413 8.51188C57.01 8.52676 56.8738 8.5466 56.7426 8.56396C56.7351 8.83182 56.5989 8.97567 56.3265 8.97567C56.2819 9.06744 56.2398 9.1592 56.1952 9.25097C56.168 9.28321 56.1581 9.32041 56.1606 9.36257C55.9303 9.45186 55.6306 9.45434 55.5885 9.79412C55.4077 9.85117 55.2294 9.91069 55.0486 9.96773C55.0437 10.0124 55.0536 10.057 55.0734 10.0967C55.0486 10.3794 54.7638 10.4042 54.6177 10.5679C54.5384 10.5407 54.5062 10.5704 54.5285 10.6523C54.5137 10.6994 54.4963 10.744 54.4815 10.7911C54.3998 10.806 54.3502 10.8457 54.3626 10.935C54.2834 11.1309 54.0308 11.2301 54.053 11.4831C53.7831 11.5079 53.632 11.6418 53.637 11.9246C53.0451 12.1428 53.0154 12.8075 52.6315 13.1919C52.4482 13.2688 52.3764 13.4201 52.369 13.6086C52.2897 13.6235 52.2402 13.6607 52.2551 13.75C52.0371 13.9385 51.7177 14.06 51.8019 14.4444C51.3289 14.8884 50.9574 15.4067 50.7023 16.0069C50.6453 16.0962 50.5884 16.1855 50.5339 16.2723C50.1921 16.3145 50.1797 16.6046 50.103 16.8452C49.8479 16.9494 49.8206 17.1676 49.8305 17.4008C49.7587 17.4256 49.7018 17.4578 49.7265 17.5496C49.2907 18.1498 49.2609 18.9261 48.8523 19.5362C48.8127 19.7222 48.9464 19.9504 48.726 20.0942C48.7112 20.2331 48.6988 20.372 48.6864 20.5109C48.6344 21.059 48.3496 20.9945 48.0053 20.7688C47.827 20.7465 47.8766 20.6225 47.8865 20.5134C47.8889 20.4613 47.8914 20.4117 47.8939 20.3596L47.8419 20.377C47.9632 20.1637 47.6685 20.0124 47.7527 19.8016C47.6958 19.6652 47.5645 19.6676 47.4481 19.6453C47.4456 19.6081 47.4456 19.5734 47.4456 19.5387C47.5769 19.4791 47.5868 19.37 47.5695 19.2485C47.5249 19.246 47.4828 19.2534 47.4407 19.2733C47.2005 19.1146 47.3416 18.8814 47.3292 18.6805C47.3144 18.4474 47.2995 18.2143 47.2871 17.9811C47.1039 17.8199 47.089 17.5917 47.0048 17.3834C46.8785 17.0684 46.9008 16.7262 46.6829 16.4186C46.0984 15.6027 45.6031 14.7247 45.031 13.8988C44.4218 13.0208 43.924 12.0535 43.082 11.3541C43.0944 11.064 42.8195 11.054 42.6634 10.9276C42.6511 10.6696 42.5347 10.5084 42.2548 10.501C42.1409 10.2877 42.1632 9.96773 41.8214 9.93053C41.757 9.70732 41.6902 9.48162 41.3756 9.54363L41.3905 9.49154C41.3038 9.5089 41.2568 9.48906 41.2791 9.39234C40.8407 8.68053 39.9715 8.40523 39.548 7.68103C39.4563 7.69343 39.4142 7.64134 39.3944 7.56446C38.8942 7.56942 38.9065 6.89234 38.4434 6.84769C38.431 6.66168 38.3246 6.57488 38.1462 6.55751C37.4974 6.15077 36.8931 5.67706 36.165 5.4092C36.0684 5.44144 36.0362 5.38688 36.0189 5.30751C35.2982 5.08182 34.7435 4.45186 33.9287 4.45434C33.7801 4.26089 33.6637 4.01287 33.3492 4.05999C33.2204 4.01535 33.0842 3.97815 32.9604 3.92111C31.6057 3.28619 30.152 2.96376 28.7057 2.61654C28.6041 2.41813 28.4283 2.50742 28.2772 2.51238C28.1831 2.49997 28.094 2.49005 27.9999 2.48013C27.9553 2.34869 27.8339 2.34372 27.725 2.31892C27.2668 2.13043 26.8161 1.92954 26.3084 1.9097C25.8502 1.87498 25.5605 1.31942 25.033 1.49551C24.5649 1.49551 24.0968 1.49799 23.6313 1.49799C23.5272 1.3095 23.3613 1.3715 23.2053 1.38638C22.6431 1.50295 22.0834 1.53767 21.5287 1.35662C21.3355 1.00196 21.1423 1.17557 20.9492 1.35414C20.4142 1.40871 19.8818 1.41366 19.3468 1.36654C18.4355 1.28718 17.4919 1.31942 16.6499 1.57984C15.684 1.87994 14.733 2.2718 13.7672 2.60166C13.626 2.66367 13.4329 2.5595 13.3313 2.74303C13.2273 2.76783 13.1035 2.75295 13.0515 2.8844C12.9103 2.93152 12.7271 2.8596 12.6305 3.03569C12.3952 3.1721 12.1599 3.31347 11.9247 3.45236C11.4937 3.43003 11.2931 3.74253 11.0777 4.03271C11.0306 4.04015 10.9885 4.05255 10.9439 4.0724C10.8548 4.05007 10.8201 4.0848 10.8399 4.17408C10.5972 4.5089 10.144 4.61555 9.95333 5.00494C9.75521 5.01486 9.60414 5.08678 9.56947 5.30503C9.53975 5.33728 9.52489 5.37696 9.52737 5.4216C9.27476 5.46128 9.08654 5.56049 9.13112 5.86803C8.52189 6.43599 7.79874 6.89978 7.41983 7.68599C7.34306 7.70583 7.29105 7.74551 7.30344 7.8348C6.91214 8.14482 6.90719 8.74253 6.43665 8.99303C6.34502 8.97319 6.30291 9.00791 6.32273 9.10216C5.79522 10.0893 5.26525 11.0739 4.73774 12.0585C4.58915 12.1106 4.60649 12.2272 4.6263 12.3437C4.18052 12.7703 4.01212 13.3581 3.7397 13.8814C3.48709 14.003 3.43756 14.2038 3.49947 14.4543C2.51629 16.1905 2.177 18.1547 1.70398 20.0421C1.21858 21.9667 1.19629 23.9955 1.25078 26.002C1.25078 26.0962 1.25078 26.188 1.25078 26.2822C1.32507 26.8948 1.40432 27.5025 1.47862 28.1126C1.4811 28.2068 1.48357 28.3011 1.48605 28.3953C1.49595 28.7351 1.52567 29.0699 1.67674 29.3799C1.62721 29.6205 1.7758 29.7842 1.90458 29.9553C2.2092 30.9375 2.3776 31.9593 2.80852 32.9018C2.7367 33.1299 2.88282 33.2391 3.05122 33.3358C3.23944 34.0278 3.50195 34.6825 3.91306 35.2778C4.11613 35.4191 4.02698 35.6845 4.15328 35.8581C4.3093 36.1384 4.47028 36.4186 4.6263 36.6964C4.59163 36.9345 4.70802 37.0982 4.88881 37.2321C5.03988 37.5248 5.186 37.8199 5.33706 38.1126C5.32221 38.2043 5.36926 38.2415 5.45346 38.249C5.51785 38.6111 5.75065 38.8616 6.00078 39.1022C6.05526 39.3601 6.10727 39.623 6.42674 39.69C6.33759 40.4315 7.13008 40.806 7.17466 41.493C7.14989 41.5848 7.18952 41.6195 7.27867 41.6046C7.47432 41.6914 7.54614 41.8626 7.58824 42.0535C7.57338 42.1007 7.55604 42.1478 7.54118 42.1949C7.59319 42.3412 7.72692 42.3239 7.84084 42.3536C7.84332 42.3933 7.8458 42.4305 7.84827 42.4702C8.08602 42.5322 8.09098 42.7703 8.20242 42.9266L8.24452 42.9712C8.35597 43.1374 8.46741 43.2986 8.57885 43.4648C8.56152 43.554 8.59867 43.5937 8.6903 43.5739C8.74726 43.6309 8.80422 43.688 8.86118 43.745C8.84137 43.8368 8.87851 43.8715 8.97015 43.8566C9.15093 43.9633 9.13855 44.2361 9.36144 44.3055C9.40354 44.4097 9.37382 44.5511 9.52241 44.5932C9.5348 44.6825 9.5447 44.7718 9.55709 44.8611C9.74778 45.0049 9.936 45.1488 10.1242 45.2902C10.0573 45.4563 10.1737 45.5704 10.2456 45.6969C10.2926 45.6994 10.3397 45.6944 10.3818 45.6771C10.617 45.8011 10.4561 46.1235 10.6715 46.2574C10.9068 46.493 11.1396 46.7286 11.3749 46.9618C11.734 47.0734 11.5878 47.4826 11.7984 47.681C11.8405 47.6835 11.8826 47.6885 11.9247 47.6959C12.0386 47.9464 12.2342 48.0034 12.4819 47.934C12.6032 47.6909 12.8236 47.6711 13.0564 47.6785C13.106 47.5942 13.158 47.5099 13.21 47.4256C13.2991 47.4132 13.3858 47.3983 13.475 47.3859C13.9703 47.0635 14.3888 46.6046 15.0253 46.5426C15.263 46.4137 15.5008 46.2847 15.736 46.1557C15.8772 46.1061 16.0184 46.0516 16.1595 46.002C16.2388 45.8184 16.4245 45.8656 16.5657 45.8184C16.9446 45.6399 17.326 45.4638 17.7049 45.2852C17.7519 45.1215 17.8733 45.1637 17.9897 45.181C18.5841 44.8536 19.1834 44.5287 19.7778 44.1989C20.1814 44.1691 20.4217 43.7897 20.8055 43.7177C20.8996 43.7227 20.9913 43.7252 21.0829 43.7277C21.0928 43.6433 21.1027 43.554 21.1101 43.4697C21.1968 43.4747 21.286 43.4821 21.3702 43.4871C21.3603 43.5367 21.3528 43.5888 21.3429 43.6359C21.3528 43.5863 21.3603 43.5342 21.3702 43.4871C21.494 43.2738 21.6575 43.1275 21.9249 43.1597C22.284 42.8472 22.6877 42.6339 23.1756 42.6041C23.2201 42.557 23.2647 42.5124 23.3118 42.4653C23.5495 42.0907 23.9953 42.2073 24.3197 42.0362C24.4089 41.8477 24.6045 41.9494 24.7383 41.8874C24.9265 41.498 25.298 41.6865 25.5852 41.6146C25.7809 41.4087 26.0459 41.3318 26.2985 41.2326C26.4372 41.1706 26.5759 41.1136 26.7145 41.0516C26.7616 40.9102 26.8879 40.9424 26.9919 40.9226C27.0117 40.8457 27.0514 40.7936 27.143 40.8035C27.2817 40.744 27.4204 40.6895 27.559 40.6299C27.7695 40.2381 28.2302 40.2778 28.5472 40.0669C28.614 39.9529 28.6685 39.8264 28.8345 39.8338C29.3991 39.6528 29.996 39.561 30.5259 39.2708C30.6646 39.2683 30.8058 39.2658 30.9469 39.2634C31.1797 39.2014 31.4125 39.1394 31.6453 39.0774C31.9177 38.9236 32.101 38.5615 32.5047 38.7004L32.4874 38.6508C32.5815 38.6557 32.678 38.6607 32.7746 38.6657C32.7796 38.626 32.7821 38.5912 32.787 38.554C33.0173 38.492 33.2452 38.43 33.473 38.3705C33.681 38.1324 33.9361 38.2986 34.1714 38.2812C34.3745 38.9335 34.8227 38.8442 35.3032 38.6508C35.3057 38.6136 35.3081 38.5788 35.3156 38.5416C35.4047 38.5292 35.4963 38.5218 35.5855 38.5094C35.6648 38.3556 35.7911 38.2887 35.9619 38.2341C36.5514 38.0481 37.0194 37.7207 37.3513 37.1552C37.8144 36.3665 38.3592 35.6275 38.8694 34.866C38.8496 34.7768 38.8867 34.7445 38.9734 34.7569C39.1121 34.1518 39.5901 33.7351 39.8377 33.1895C40.1522 33.2118 40.1176 32.929 40.2142 32.7579C40.2711 32.7033 40.3281 32.6513 40.385 32.5967C40.4816 32.6165 40.5163 32.557 40.5386 32.4826C40.8085 31.8799 41.4425 31.6121 41.8016 31.0912C42.0047 31.0714 42.1483 30.9697 42.24 30.7862C42.2821 30.7515 42.3242 30.7118 42.3663 30.6771L42.3489 30.6275C42.5743 30.6795 42.6956 30.5754 42.7476 30.3646C42.8071 30.2778 42.869 30.1885 42.926 30.0992C43.1266 30.0992 43.2628 30.0025 43.3544 29.8313C43.7383 29.6751 44.0949 29.4791 44.3401 29.1294C44.5283 29.0972 44.6818 29.0278 44.7264 28.8194C44.7834 28.6954 44.8998 28.683 45.0162 28.6731C45.0384 28.5937 45.0805 28.5441 45.1722 28.554C45.2267 28.502 45.2811 28.4474 45.3356 28.3928C45.3183 28.3532 45.3133 28.3135 45.3208 28.2713C45.3678 28.2564 45.4124 28.2564 45.4545 28.2787C45.6353 28.1895 45.7319 28.0382 45.769 27.8447C46.2272 27.6438 46.6903 27.4429 47.1485 27.2396C47.2426 27.2619 47.2772 27.2247 47.2599 27.1304C47.5744 26.8031 47.8914 26.4782 48.414 26.5873C48.5081 26.5873 48.6022 26.5848 48.6963 26.5848C49.3427 26.7038 49.9247 27.4876 49.8058 28.0853C49.6522 28.8715 49.36 29.5957 48.835 30.2133C48.7533 30.2306 48.7037 30.2703 48.7211 30.3646C48.6195 30.4662 48.5155 30.5679 48.414 30.6721C48.3223 30.6572 48.2877 30.6969 48.2951 30.7862C48.2233 31.0069 47.9088 30.8358 47.8444 31.0664C47.6735 31.1557 47.5695 31.2897 47.5521 31.4856C47.4605 31.5774 47.3713 31.6666 47.2822 31.7584C47.0147 32.0064 46.7448 32.2569 46.4773 32.5049C46.8216 32.4801 47.1509 33.0034 47.4382 32.5049C47.6561 32.3586 47.827 32.1255 48.1341 32.1701C48.2307 32.18 48.2579 32.1329 48.248 32.0486L48.2976 32.061C48.2852 31.9717 48.3149 31.9271 48.4115 31.9469C48.5006 31.8874 48.5923 31.8303 48.6814 31.7683C48.7062 31.6964 48.7433 31.6369 48.8325 31.6666C49.5779 31.2301 50.3184 30.7936 51.0639 30.3571C51.0713 30.3174 51.0812 30.2778 51.0936 30.2356C51.1406 30.2257 51.1852 30.2306 51.2298 30.2505C51.4973 30.0868 51.8489 30.0297 51.9653 29.6726C52.4309 29.7396 52.4482 29.1939 52.7826 29.0774C53.0921 29.1617 53.3571 29.0476 53.6048 28.8765C54.432 28.5714 55.2393 28.182 56.1581 28.2415C56.3216 28.0382 56.5296 28.1349 56.7277 28.1523C56.9704 28.2663 57.2478 28.311 57.4335 28.5292C57.6688 28.6458 57.7357 28.8789 57.8322 29.0922C57.6044 29.2386 57.7555 29.4593 57.7208 29.6428C57.9734 29.8487 58.2656 29.8164 58.5579 29.7792C58.6966 29.7941 58.8377 29.804 58.9764 29.8164C59.073 29.9752 59.2538 29.9851 59.4024 30.0521C59.9621 30.3174 59.6153 30.8234 59.707 31.2103C59.4742 31.5426 59.5014 31.751 59.9645 31.751C60.4772 31.8477 60.4499 32.247 60.445 32.624C60.445 32.805 60.4029 32.9811 60.3806 33.1622C59.6079 33.8269 59.6079 33.8269 60.2345 34.313C60.3657 34.9008 60.0215 35.2827 59.6525 35.6498C59.5138 35.4811 59.3726 35.31 59.2364 35.1413C59.1795 34.9405 59.6723 34.5808 59.1299 34.561C58.917 34.5535 58.4737 34.5858 58.4043 35.0074C57.8 35.3894 57.1908 35.7738 56.5865 36.1557C56.3686 36.121 56.1705 36.1185 56.1482 36.4137C55.2368 36.7063 54.4443 37.2321 53.6296 37.7083C53.4091 37.6612 53.2754 37.7505 53.2308 37.9687C53.0773 38.1771 52.7182 38.1027 52.6389 38.4102C52.5498 38.4003 52.5003 38.4424 52.4854 38.5268C52.3517 38.6334 52.2031 38.7078 52.0322 38.6731C51.8118 38.626 51.4799 38.8343 51.3883 38.4648C51.3066 38.1275 51.475 37.9241 51.787 37.7505C53.1045 37.0188 54.3973 36.2525 55.7619 35.5977C57.0274 34.9901 58.1963 34.1865 59.2562 33.249C59.4346 33.0878 59.5138 32.8695 59.551 32.6339C59.6674 32.5992 59.863 32.6041 59.7887 32.4206C59.7293 32.2792 59.5931 32.0957 59.3949 32.314C59.2513 32.3512 59.0755 32.2941 58.969 32.4504C58.86 32.4677 58.7387 32.4677 58.6916 32.6041C58.4291 32.6686 58.4489 33.0704 58.1319 33.0704C58.0403 33.0456 58.0006 33.0952 57.9858 33.1771C57.8471 33.2837 57.7084 33.3904 57.5697 33.497C57.4756 33.4697 57.4434 33.5218 57.4236 33.6012C56.7673 33.9409 56.111 34.2807 55.4548 34.6205C55.3607 34.5957 55.3235 34.6329 55.3408 34.7296C55.3235 34.7693 55.3111 34.809 55.3086 34.8512C55.217 34.9479 55.1204 35.0397 55.0288 35.1339C54.1719 35.6746 53.1763 35.9449 52.3541 36.5451C52.1511 36.6071 51.9406 36.6542 51.7895 36.8254C51.4675 36.9866 51.1382 37.1354 50.8261 37.314C50.4794 37.5124 50.2045 37.314 50.0411 37.0957C49.8182 36.7907 50.2194 36.7733 50.358 36.6294C50.8781 36.0912 51.5864 35.9102 52.2229 35.5903C52.4111 35.5605 52.5646 35.4786 52.6439 35.2926C52.8296 35.2406 53.0179 35.1885 53.2036 35.1339C53.4166 35.1637 53.5404 35.0446 53.637 34.8735C54.6474 34.3353 55.5513 33.6235 56.6014 33.1299C57.327 32.7902 57.9288 32.19 58.5777 31.6914C58.8972 31.4434 58.9913 30.9945 58.8947 30.7167C58.7981 30.4414 58.3573 30.3373 57.9907 30.3943C57.9486 30.372 57.9041 30.3646 57.857 30.3794C57.8496 30.4191 57.8421 30.4613 57.8322 30.501C57.0175 30.7192 56.5345 31.4062 55.8931 31.875C55.4548 32.1949 55.0238 32.5372 54.4691 32.6513C54.375 32.6265 54.3378 32.6661 54.3577 32.7579C53.4091 33.3953 52.5498 34.179 51.4675 34.5957C50.9623 34.7916 50.5537 35.2207 49.9618 35.1885C49.8652 35.1612 49.8355 35.2009 49.8528 35.2926C49.5779 35.7391 49.0207 35.6994 48.6468 35.9846C48.5254 36.0764 48.3149 35.9995 48.2158 35.8606C48.0425 35.6225 48.1143 35.3894 48.2802 35.1736C48.4833 35.1612 48.622 35.0595 48.7062 34.876C49.6423 34.4444 50.6676 34.2063 51.5121 33.5788C51.8415 33.6508 51.9356 33.3631 52.109 33.1944C52.6835 33.2143 52.9807 32.7033 53.3745 32.4405C54.2214 31.87 55.2492 31.5327 55.8882 30.6671C56.0714 30.6299 56.3315 30.6919 56.2894 30.3596L56.3414 30.372C56.3191 30.2827 56.3488 30.243 56.4429 30.253C56.7426 30.0967 57.0026 29.9132 56.9853 29.5213C57.0373 29.0873 56.8664 28.9236 56.4379 29.0848C56.1606 29.0972 55.8783 29.1096 55.6009 29.122C55.4845 29.0898 55.373 29.0774 55.3037 29.2063C54.6276 29.3204 54.0308 29.6453 53.4265 29.933C53.2581 30.0124 53.1021 30.0843 52.9213 30.1141C52.8296 30.0992 52.7925 30.1339 52.8049 30.2257C52.5622 30.6175 52.0297 30.6572 51.787 31.0491C51.6013 31.0838 51.4329 31.1458 51.361 31.3467C50.9896 31.5426 50.6181 31.7386 50.2441 31.932C50.155 31.9221 50.1129 31.9717 50.0931 32.0511C49.5482 32.3363 49.0034 32.619 48.4561 32.9042C48.3644 32.9886 48.2728 33.0729 48.1836 33.1572C47.6116 33.5441 46.8934 33.554 46.3015 33.8864C46.1554 33.9161 45.9721 33.8194 45.8755 34.0154C45.4817 34.2782 45.0434 34.1741 44.615 34.1592C44.5233 34.0625 44.4292 33.9682 44.3376 33.8715C44.2484 33.564 44.4738 33.3928 44.6298 33.1895C44.7735 33.1324 44.7512 33.0158 44.7264 32.9018C44.8329 32.8125 44.9344 32.7232 45.0384 32.6314C45.2217 32.619 45.3431 32.5545 45.2836 32.3388C45.717 31.9543 46.1529 31.5724 46.5863 31.188C46.6804 31.2053 46.7151 31.1533 46.7349 31.0739C46.8637 31.0268 46.8562 30.9127 46.8711 30.806C47.0395 30.7564 47.3391 30.878 47.2599 30.5084C47.5274 30.2926 47.827 30.1091 48.0128 29.804C48.144 29.7098 48.2753 29.6156 48.4065 29.5188C48.5576 29.1468 48.7112 28.7698 48.8647 28.3978C48.8498 27.9266 48.6195 27.6686 48.1341 27.6661C48.0871 27.6736 48.0375 27.6785 47.988 27.686C47.9484 27.8323 47.8146 27.805 47.7131 27.8398C47.6685 27.8869 47.6264 27.934 47.5843 27.9811C47.567 28.2639 47.4481 28.4003 47.1534 28.2713C46.9801 28.6359 46.6581 28.7029 46.299 28.7053C46.2074 28.688 46.1653 28.7227 46.1801 28.8194C45.5635 29.5362 44.8329 30.119 44.0379 30.625C43.8398 30.6299 43.7432 30.7291 43.7457 30.9251C43.0721 31.1458 42.604 31.617 42.2053 32.1776C41.8982 32.1577 41.757 32.304 41.7744 32.6066C41.554 32.6934 41.232 32.6637 41.2568 33.0456C41.1503 33.2242 41.0438 33.4003 40.9373 33.5788C40.7417 33.5838 40.6426 33.683 40.6327 33.8765C40.1993 33.9236 40.2042 34.3006 40.1002 34.5932C39.7585 34.7197 39.8377 35.0297 39.7931 35.2877C39.2235 35.6795 38.966 36.3269 38.5772 36.8551C38.1958 37.371 37.8466 37.9092 37.4231 38.3928C37.3414 38.4028 37.2894 38.4424 37.3067 38.5342C37.2473 38.6185 37.1878 38.7078 37.1333 38.7921C36.8683 38.9633 36.4028 38.5441 36.2641 39.0873C35.9149 39.1766 35.5781 39.2956 35.3057 39.5511C35.2165 39.5263 35.1694 39.5759 35.1422 39.6528L35.1521 39.6428C35.1125 39.6949 35.0729 39.7445 35.0308 39.7941C35.0729 39.809 35.1174 39.8189 35.1595 39.8264C35.1917 40.1017 35.0877 40.4067 35.323 40.6448C35.4666 40.8829 35.6078 41.1185 35.749 41.3541C35.749 41.4459 35.7465 41.5377 35.7465 41.6294C35.8332 41.6319 35.9223 41.6369 36.0115 41.6394C36.1502 41.8006 36.1774 41.9915 36.1675 42.1949C36.425 42.433 36.6727 42.6785 36.742 43.0456C36.7247 43.0878 36.7198 43.1324 36.7346 43.1771C36.7767 43.1845 36.8163 43.1771 36.856 43.1547C37.0491 43.2366 37.0442 43.4499 37.1457 43.5937C37.2522 43.6929 37.3587 43.7921 37.4627 43.8938C37.4404 43.9806 37.4776 44.0079 37.5593 43.998C37.6608 44.0997 37.7574 44.2038 37.859 44.3055C38.0868 44.2807 38.2626 44.3303 38.2973 44.5957C38.28 44.6825 38.3122 44.7222 38.4038 44.7048C38.4979 44.7296 38.592 44.7544 38.6886 44.7792C38.7827 44.7743 38.8768 44.7718 38.9734 44.7668C40.1423 43.869 41.44 43.2713 42.874 42.8794C43.9389 42.5893 45.0038 42.242 46.0241 41.7882C46.3708 41.6319 46.7646 41.5798 47.1361 41.4781C47.193 41.3343 47.3094 41.3541 47.4258 41.3765C47.7057 41.3145 47.9855 41.2525 48.2654 41.1905C48.4907 41.0788 48.7012 40.9176 48.9761 40.9548C49.4343 40.7539 49.8925 40.5555 50.3506 40.3571C50.3803 40.2778 50.4323 40.2306 50.524 40.2505C51.0688 40.2455 51.371 39.6652 51.9158 39.6577C51.9406 39.5833 51.9802 39.5263 52.0743 39.5461C52.1213 39.5287 52.1709 39.5114 52.2179 39.4965C52.3096 39.5089 52.3517 39.4717 52.3393 39.3775L52.3962 39.3923C52.3715 39.3031 52.3962 39.2559 52.4978 39.2733C52.7751 39.2014 53.0352 39.0526 53.3373 39.0873C53.3249 38.8839 53.4488 38.8194 53.6221 38.812C54.9892 38.3507 56.1754 37.5843 57.2899 36.689C57.379 36.6989 57.4187 36.6592 57.4038 36.5699C57.8818 36.2921 58.1641 35.7639 58.699 35.558C58.7931 35.5754 58.8377 35.5407 58.8229 35.4439C58.8377 35.3943 58.8526 35.3472 58.8674 35.2976C58.8451 35.2554 58.8427 35.2133 58.8575 35.1661C58.9021 35.1637 58.9417 35.1736 58.9764 35.1959C59.0631 35.181 59.1473 35.1637 59.2364 35.1488C59.3726 35.3174 59.5138 35.4886 59.6525 35.6572C59.6178 35.6895 59.5832 35.7192 59.5485 35.7515C59.4618 35.7366 59.4172 35.7688 59.4321 35.8631C59.3974 35.9772 59.4048 36.1185 59.2587 36.1706C59.1671 36.1533 59.1299 36.2078 59.1052 36.2822C59.0086 36.3789 58.912 36.4757 58.8129 36.5724C58.8303 36.6642 58.7907 36.7014 58.699 36.684C58.3251 37.0287 57.9486 37.371 57.5722 37.7182C57.3444 37.6637 57.223 37.7852 57.1462 37.9762C56.958 38.1126 56.6782 38.12 56.5766 38.3804C56.4652 38.4052 56.3438 38.4152 56.2894 38.5416C56.3116 38.5863 56.3141 38.6334 56.2918 38.6781C56.2473 38.6706 56.2002 38.6657 56.1531 38.6582L56.168 38.7078C55.9525 38.6433 55.8609 38.7475 55.8386 38.9484C55.1947 39.1964 54.5508 39.4419 53.9045 39.69C53.6865 39.623 53.6172 39.742 53.6023 39.9256C53.4958 39.9429 53.3769 39.938 53.3373 40.0769C52.5696 40.1885 51.9802 40.7465 51.2422 40.9276C51.1852 40.7961 51.1307 40.7911 51.0787 40.93C51.0242 40.9796 50.9722 41.0268 50.9177 41.0764C50.9376 41.1706 50.9029 41.2078 50.8063 41.1905C50.5859 41.2252 50.3432 41.2252 50.2367 41.4856C50.0931 41.5352 49.8949 41.4211 49.8058 41.6319C49.6646 41.6666 49.4838 41.5774 49.3922 41.7634C49.3006 41.7733 49.2114 41.7832 49.1198 41.7906C49.0752 41.932 48.9539 41.9171 48.8449 41.9221C48.7954 42.0163 48.7433 42.1056 48.6938 42.1999C48.7854 42.2495 48.8721 42.2991 48.9613 42.3462C48.986 42.6165 49.1644 42.7778 49.3749 42.9117C49.3922 43.0952 49.464 43.2192 49.6795 43.1696C50.098 43.8417 50.8137 44.1989 51.3586 44.7396C51.3561 44.933 51.4527 45.0297 51.6483 45.0297C51.787 45.1661 51.9282 45.3026 52.0693 45.439C52.0842 45.5208 52.1213 45.5704 52.213 45.558C52.5646 45.8259 52.6959 46.3343 53.1962 46.436C53.5627 46.9295 54.0208 47.3214 54.5706 47.6463C54.6747 47.252 54.4963 46.9767 54.3428 46.6989C54.4146 46.4062 54.1967 46.2847 54.0134 46.1408C53.9342 45.9796 53.9391 45.7688 53.7534 45.6622C53.7039 45.5878 53.6543 45.5109 53.6048 45.439C53.6593 45.2207 53.5231 45.1637 53.3497 45.1413C53.3027 44.7792 53.2606 44.4097 53.0773 44.0898C52.7182 43.4623 53.0674 42.9117 53.2878 42.3784C53.4512 41.9841 54.1793 42.0411 54.6177 42.4132C55.1551 42.8695 55.6083 43.4102 55.9773 43.9905C56.3785 44.618 56.7748 45.2133 57.4038 45.6399C57.592 45.7663 57.7233 45.9747 57.8793 46.1458C57.8595 46.2401 57.8991 46.2773 57.9907 46.2599C58.751 47.3164 59.6376 48.2862 60.0785 49.5535C60.2543 50.0545 60.3484 50.5679 60.5069 51.0714C60.9626 51.6071 61.6362 51.8204 62.1934 52.2073C62.2504 52.252 62.3049 52.2991 62.3618 52.3462C62.399 52.366 62.4336 52.3784 62.4609 52.3809C62.4881 52.3859 62.5154 52.3809 62.5377 52.366C62.5154 52.3784 62.4906 52.3834 62.4609 52.3809C62.4336 52.3784 62.399 52.366 62.3618 52.3462C62.3693 52.2991 62.3792 52.2544 62.3915 52.2098C62.4733 52.2148 62.56 52.2197 62.6442 52.2247C63.4069 52.1007 63.8676 52.7281 64.4793 52.9762C64.774 53.0952 65.0291 53.3035 65.304 53.4697C65.5046 53.8045 65.9132 53.8393 66.1807 54.0798C66.5001 54.4866 66.9434 54.6676 67.4363 54.7644C67.5279 54.752 67.565 54.7892 67.5502 54.8809L67.6071 54.866C67.5873 54.9529 67.617 54.9975 67.7112 54.9851C67.8127 55.0421 67.9142 55.0992 68.0158 55.1562C68.0083 55.243 68.043 55.2877 68.1346 55.2703C68.6176 55.3348 68.942 55.7366 69.3952 55.8606C69.3779 56.0689 69.4819 56.1508 69.675 56.1508C69.6949 56.2277 69.7345 56.2748 69.8236 56.2549C69.9821 56.3938 70.1728 56.4409 70.3784 56.4409C70.3784 56.4781 70.3833 56.5178 70.3908 56.555C70.5295 56.5526 70.6681 56.5476 70.8068 56.5426C70.9034 56.4087 71.0025 56.2748 71.0991 56.1408C71.4383 55.9697 71.4582 55.439 71.9262 55.4092C72.0649 55.3199 72.2011 55.2331 72.3373 55.1438C72.3398 54.9032 72.5429 54.7768 72.6444 54.5932C72.8376 54.5982 72.9342 54.5064 72.9342 54.313C73.4592 53.8417 73.9793 53.3705 74.5043 52.8993C74.4919 52.805 74.5365 52.7753 74.6256 52.7951L74.6108 52.743C74.8238 52.7802 74.9278 52.7083 74.8783 52.4777C75.3092 51.994 75.7401 51.5104 76.171 51.0243C76.2602 51.0516 76.2775 51.0119 76.2602 50.9375C76.8397 50.4439 77.2235 49.7867 77.7164 49.2187C77.9244 49.2634 77.9937 49.1418 78.021 48.9657C78.2092 48.7748 78.3999 48.5838 78.5881 48.3953C78.6253 48.3556 78.6624 48.3135 78.6996 48.2738C79.1453 47.8075 79.6382 47.3884 79.9997 46.8452C79.9824 46.7584 80.0171 46.7187 80.1062 46.7361C80.9458 46.0912 81.4039 45.0843 82.2559 44.4519C82.2361 44.3576 82.2831 44.3279 82.3698 44.3403C82.4168 44.2435 82.4639 44.1468 82.5085 44.0501C82.7115 44.0377 82.8676 43.9583 82.9419 43.7574C83.0781 43.7078 83.0583 43.5714 83.1004 43.4672C83.083 43.373 83.1301 43.3457 83.2168 43.3581L83.1994 43.306C83.4149 43.3531 83.4991 43.2515 83.4941 43.0481C83.6898 42.8621 83.8854 42.6736 84.0811 42.4851C84.0588 42.3636 84.0538 42.2445 84.195 42.1825L84.2619 42.2024L84.3312 42.1924C84.3337 42.1528 84.3411 42.1131 84.3485 42.0734C84.5194 41.9866 84.6011 41.8403 84.6383 41.6617C84.8191 41.6518 84.9256 41.5625 84.928 41.3715C85.51 41.0615 85.5719 40.3422 86.0499 39.9529C85.9756 39.7172 86.1267 39.6652 86.3075 39.6379C86.2802 39.747 86.2233 39.8338 86.1416 39.8958C86.2258 39.8313 86.2802 39.747 86.3075 39.6379C86.8276 38.7053 87.7241 38.0258 88.1005 36.9915C88.155 36.8427 88.316 36.679 88.5413 36.7063C88.5611 36.5997 88.5512 36.4782 88.6825 36.4261C88.6899 36.3417 88.6998 36.2574 88.7097 36.1731C88.9103 36.0912 88.9673 35.9127 89.0143 35.7267C89.4849 35.558 89.4849 35.119 89.5914 34.742C89.5666 34.6552 89.6013 34.6255 89.6855 34.6404C89.7325 34.6205 89.7821 34.6032 89.8291 34.5858C89.9232 34.6007 89.9579 34.556 89.9455 34.4667C90.0099 34.2783 90.0743 34.0873 90.1387 33.8988C90.1734 33.8442 90.2056 33.7872 90.2402 33.7301C90.2402 33.6111 90.26 33.4995 90.3938 33.4499C90.4804 33.4648 90.525 33.4325 90.5052 33.3408C90.8173 32.9067 91.0476 32.4281 91.2209 31.9271C91.2308 31.8874 91.2358 31.8452 91.2407 31.8055C91.2878 31.7907 91.3299 31.7907 91.377 31.8055C91.4983 31.741 91.533 31.6369 91.4983 31.5079C91.5132 31.4137 91.528 31.3194 91.5429 31.2277C91.5231 31.1359 91.5776 31.0987 91.6543 31.0764C92.2636 30.3422 92.536 29.4519 92.8059 28.5615C92.9917 28.4648 92.8926 28.2787 92.9421 28.1374C92.9817 28.1324 93.0164 28.1275 93.056 28.1275C93.1526 27.805 92.9198 27.4355 93.2046 27.1453C93.3631 26.622 93.5018 26.1036 93.638 25.5828ZM58.1393 7.54958C58.1369 7.54958 58.1344 7.54958 58.1319 7.54958C58.1319 7.55206 58.1294 7.55702 58.1294 7.5595L58.1393 7.54958ZM59.8308 6.28718C59.8283 6.28718 59.8283 6.28718 59.8259 6.28718C59.8259 6.28718 59.8259 6.28966 59.8259 6.29214L59.8308 6.28718ZM55.6009 9.79908C55.5984 9.79908 55.5934 9.80156 55.591 9.80156C55.591 9.80404 55.591 9.80652 55.591 9.80652L55.6009 9.79908ZM87.9841 7.58926C87.9841 7.59174 87.9866 7.5967 87.9866 7.60166C87.9915 7.60662 87.999 7.6091 88.0039 7.61654C88.0039 7.61406 87.9841 7.58926 87.9841 7.58926ZM6.17166 56.8403C6.17166 56.8378 6.16918 56.8378 6.16918 56.8353L6.17166 56.8403ZM55.6356 8.12994C55.6727 8.09273 55.7148 8.05801 55.7519 8.02081C55.6578 7.99601 55.6232 8.03569 55.6356 8.12994ZM8.17022 5.02974C8.2049 4.99501 8.23709 4.96029 8.27176 4.92557C8.18756 4.91069 8.14794 4.94045 8.17022 5.02974ZM86.0177 42.0659C85.9806 42.1155 85.9459 42.1652 85.9088 42.2148C85.988 42.1999 86.0351 42.1552 86.0177 42.0659ZM62.3668 3.4846C62.4163 3.44492 62.4658 3.41019 62.5129 3.37299C62.4213 3.35067 62.3841 3.40523 62.3668 3.4846ZM41.7967 32.6116C41.7942 32.6116 41.7917 32.6141 41.7892 32.6141C41.7892 32.6165 41.7892 32.6165 41.7892 32.619L41.7967 32.6116ZM27.138 54.0054C27.1356 54.0054 27.1306 54.0079 27.1281 54.0079C27.1281 54.0079 27.1281 54.0129 27.1281 54.0154L27.138 54.0054ZM69.6899 56.1483C69.6899 56.1483 69.6924 56.1508 69.6924 56.1532C69.6949 56.1532 69.6949 56.1532 69.6949 56.1532L69.6899 56.1483ZM78.603 48.3953C78.6426 48.3556 78.6797 48.3159 78.7169 48.2763C78.6277 48.2663 78.5856 48.3035 78.603 48.3953ZM90.161 33.8938C90.1956 33.8393 90.2278 33.7822 90.2625 33.7277C90.1833 33.7574 90.1337 33.8045 90.161 33.8938ZM53.6271 39.9305C53.6246 39.9305 53.6196 39.9305 53.6196 39.9305C53.6196 39.933 53.6196 39.9355 53.6196 39.9405L53.6271 39.9305ZM42.2523 30.7986C42.292 30.7614 42.3341 30.7242 42.3762 30.687C42.3341 30.6696 42.292 30.6622 42.2474 30.6671C42.235 30.7118 42.235 30.7539 42.2523 30.7986ZM43.2108 46.307C43.2628 46.3492 43.3148 46.3889 43.3693 46.431C43.3494 46.3442 43.3049 46.2921 43.2108 46.307Z" fill="#D12424"/>
</g>
</svg>
